<?xml version="1.0" encoding="utf-8"?>
<!-- Generator: Adobe Illustrator 23.0.4, SVG Export Plug-In . SVG Version: 6.00 Build 0)  -->
<svg version="1.1" id="Layer_1" xmlns="http://www.w3.org/2000/svg" xmlns:xlink="http://www.w3.org/1999/xlink" x="0px" y="0px"
	 viewBox="0 0 509.6 280.2" style="enable-background:new 0 0 509.6 280.2;" xml:space="preserve">
<style type="text/css">
	.st0{fill:#1B1464;}
</style>
<title>Asset 1</title>
<g>
	<g id="Layer_1-2">
		<path class="st0" d="M26.5,0c-0.1,34.3-0.2,68.7-0.3,103c20.9-3.7,41.9-6.5,63-8.8c0.2-31.4,0.6-62.8,1.1-94.2h26.6
			c-1.4,69.4-1.7,138.8-2,208.2c-9,4-17.8,8.6-26.4,13.5c0.2-30.2,0.3-60.5,0.5-90.7c-21.1,5.1-42,10.7-62.8,16.7
			c-0.1,38.1-0.2,76.2-0.4,114.4c-8.6,6-17.2,12-25.8,18.1V0.1C10.6,0,15.9,0,26.5,0z"/>
		<path class="st0" d="M139.3,0h117.1c0,14.8-0.1,17.3-0.1,27.1c-15.2,0-30.4,0.1-45.7,0.3c-0.8,53.1-0.7,106.3-0.7,159.4
			c-10.9,0.8-16.4,1.4-27.3,2.8c0.1-53.9,0.1-107.7,1.2-161.6c-15.1,0.4-30.2,0.8-45.3,1.3C138.8,19.5,139,9.8,139.3,0z"/>
		<path class="st0" d="M259,0h117.1c0.2,9.8,0.3,19.6,0.5,29.4c-15.1-0.4-30.2-0.9-45.2-1.3c0.9,54.1,1.3,108.2,1.6,162.3
			c-10.9-1.5-16.4-2.1-27.3-3c-0.2-53.3-0.6-106.6-1.1-159.8c-15.2-0.3-30.4-0.5-45.6-0.5V0z"/>
		<path class="st0" d="M410.1,0c14.7,68.7,24.2,136.6,34.8,206c12.3-68.7,24.2-137.4,36.8-206h27.9c-17.5,92.2-33.1,184.2-47.3,277
			c-9.2-8.9-18.3-17.9-27.6-26.6C416.3,167,401.9,83.1,381.9,0H410.1z"/>
	</g>
</g>
</svg>
