<svg xmlns="http://www.w3.org/2000/svg" viewBox="0 0 509.6 280.2"><title>Asset 1</title><g id="Layer_2" data-name="Layer 2"><g id="Layer_1-2" data-name="Layer 1"><path d="M26.5,0c-.1,34.3-.2,68.7-.3,103,20.9-3.7,41.9-6.5,63-8.8Q89.5,47.1,90.3,0h26.6c-1.4,69.4-1.7,138.8-2,208.2-9,4-17.8,8.6-26.4,13.5.2-30.2.3-60.5.5-90.7q-31.65,7.65-62.8,16.7-.15,57.15-.4,114.4c-8.6,6-17.2,12-25.8,18.1V.1C10.6,0,15.9,0,26.5,0Z"/><path d="M139.3,0H256.4c0,14.8-.1,17.3-.1,27.1-15.2,0-30.4.1-45.7.3-.8,53.1-.7,106.3-.7,159.4-10.9.8-16.4,1.4-27.3,2.8.1-53.9.1-107.7,1.2-161.6-15.1.4-30.2.8-45.3,1.3C138.8,19.5,139,9.8,139.3,0Z"/><path d="M259,0H376.1c.2,9.8.3,19.6.5,29.4-15.1-.4-30.2-.9-45.2-1.3.9,54.1,1.3,108.2,1.6,162.3-10.9-1.5-16.4-2.1-27.3-3q-.3-80-1.1-159.8c-15.2-.3-30.4-.5-45.6-.5Z"/><path d="M410.1,0c14.7,68.7,24.2,136.6,34.8,206,12.3-68.7,24.2-137.4,36.8-206h27.9c-17.5,92.2-33.1,184.2-47.3,277-9.2-8.9-18.3-17.9-27.6-26.6C416.3,167,401.9,83.1,381.9,0Z"/></g></g></svg>